<svg xmlns="http://www.w3.org/2000/svg" xmlns:xlink="http://www.w3.org/1999/xlink" viewBox="0 0 80 70">
  <defs>
    <style>
      .cls-1 {
        clip-path: url(#clip-Artboard_8);
      }

      .cls-2, .cls-3 {
        fill: #fff;
      }

      .cls-3 {
        font-size: 5px;
        font-family: HelveticaNeue-Bold, Helvetica Neue;
        font-weight: 700;
      }
    </style>
    <clipPath id="clip-Artboard_8">
      <rect width="80" height="70"/>
    </clipPath>
  </defs>
  <g id="Artboard_8" data-name="Artboard – 8" class="cls-1">
    <g id="noun_1742354_cc" transform="translate(-8 -13)">
      <path id="Path_54" data-name="Path 54" class="cls-2" d="M88,47a6.018,6.018,0,0,0-6-6H63a3.058,3.058,0,0,1-3-2.9c.1-1.8,3-5.4,3-19.1a6,6,0,0,0-12,0c0,15.2-17.7,23.8-18,24V75c7.1,0,7.6,8,21,8H72a6.018,6.018,0,0,0,6-6,5.584,5.584,0,0,0-1.6-4H77a6.018,6.018,0,0,0,6-6,5.9,5.9,0,0,0-1.7-4.2,5.969,5.969,0,0,0,2.8-10.2A5.869,5.869,0,0,0,88,47Z"/>
      <path id="Path_55" data-name="Path 55" class="cls-2" d="M23,38H8V80H23a4.012,4.012,0,0,0,4-4V42A4.012,4.012,0,0,0,23,38Z"/>
      <text id="Created_by_Dumitriu_Robert" data-name="Created by Dumitriu Robert" class="cls-3" transform="translate(0 111)"><tspan x="0" y="0">Created by Dumitriu Robert</tspan></text>
      <text id="from_the_Noun_Project" data-name="from the Noun Project" class="cls-3" transform="translate(0 116)"><tspan x="0" y="0">from the Noun Project</tspan></text>
    </g>
  </g>
</svg>
